<svg width="1440" height="1024" fill="none" xmlns="http://www.w3.org/2000/svg"><g clip-path="url(#a)"><path fill="#0D0A2C" d="M0 0h1440v1024H0z"/><g filter="url(#b)"><ellipse cx="1312.5" cy="1189.04" rx="683" ry="623" transform="rotate(5.934 1312.5 1189.04)" fill="#3B0764"/></g><g filter="url(#c)"><ellipse cx="297.717" cy="759.021" rx="651.829" ry="421.901" transform="rotate(16.475 297.717 759.021)" fill="#581C87"/></g><g filter="url(#d)"><path d="M762.177 873.449c-553.21-87.173-670.046-629.144-865.055-634.333-245.139-6.523-250.931 489.843-72.525 697.74 210.292 245.054 1312.483-4.331 937.58-63.407z" fill="#A855F7"/></g><g filter="url(#e)"><path d="M161.412 849.712c-170.84-17.758-260.59 64.741-273.323 187.248-26.57 255.62 1472.021 503.26 1722.551 313.82 184.11-139.22 185.52-362.059 16.76-458.78-190.73-109.304-179.21-127.56-382.9-78-169.96 41.351-364.861 114.887-550.072 145.406-173.357 28.565-381.267-93.921-533.016-109.694z" fill="#C084FC"/></g></g><defs><filter id="b" x="330.066" y="265.306" width="1964.87" height="1847.46" filterUnits="userSpaceOnUse" color-interpolation-filters="sRGB"><feFlood flood-opacity="0" result="BackgroundImageFix"/><feBlend in="SourceGraphic" in2="BackgroundImageFix" result="shape"/><feGaussianBlur stdDeviation="150" result="effect1_foregroundBlur_1608_1317"/></filter><filter id="c" x="-758.815" y="-105.897" width="2113.06" height="1729.84" filterUnits="userSpaceOnUse" color-interpolation-filters="sRGB"><feFlood flood-opacity="0" result="BackgroundImageFix"/><feBlend in="SourceGraphic" in2="BackgroundImageFix" result="shape"/><feGaussianBlur stdDeviation="210" result="effect1_foregroundBlur_1608_1317"/></filter><filter id="d" x="-619.333" y="-80.948" width="1778.66" height="1443.61" filterUnits="userSpaceOnUse" color-interpolation-filters="sRGB"><feFlood flood-opacity="0" result="BackgroundImageFix"/><feBlend in="SourceGraphic" in2="BackgroundImageFix" result="shape"/><feGaussianBlur stdDeviation="160" result="effect1_foregroundBlur_1608_1317"/></filter><filter id="e" x="-432.26" y="467.875" width="2503.7" height="1269.75" filterUnits="userSpaceOnUse" color-interpolation-filters="sRGB"><feFlood flood-opacity="0" result="BackgroundImageFix"/><feBlend in="SourceGraphic" in2="BackgroundImageFix" result="shape"/><feGaussianBlur stdDeviation="160" result="effect1_foregroundBlur_1608_1317"/></filter><clipPath id="a"><path fill="#fff" d="M0 0h1440v1024H0z"/></clipPath></defs></svg>