<svg xmlns="http://www.w3.org/2000/svg" xmlns:xlink="http://www.w3.org/1999/xlink" viewBox="0 0 10123 2711">
  <defs>
    <linearGradient id="grad1" x1="833.134" y1="1667.74" x2="833.134" y2="122.852" gradientUnits="userSpaceOnUse">
      <stop offset="0" stop-color="#aa38c7"/>
      <stop offset="1" stop-color="#e8d2f1"/>
    </linearGradient>
    <linearGradient id="grad2" x1="1156.95" y1="1631.61" x2="1156.95" y2="292.434" gradientUnits="userSpaceOnUse">
      <stop offset="0" stop-color="#bc6dd3"/>
      <stop offset="0.68" stop-color="#ce97e0"/>
      <stop offset="0.86" stop-color="#dfbeeb"/>
      <stop offset="1" stop-color="#e2c6ed"/>
    </linearGradient>
    <linearGradient id="grad3" x1="833.077" y1="2434.82" x2="833.077" y2="1501.89" gradientUnits="userSpaceOnUse">
      <stop offset="0" stop-color="#9837b7"/>
      <stop offset="1" stop-color="#a549c1"/>
    </linearGradient>
    <linearGradient id="grad4" x1="833.954" y1="1502.71" x2="833.954" y2="292.434" gradientUnits="userSpaceOnUse">
      <stop offset="0" stop-color="#b95bd2"/>
      <stop offset="0.4" stop-color="#b95bd2"/>
      <stop offset="0.53" stop-color="#af44ca"/>
      <stop offset="0.79" stop-color="#ba57d3"/>
      <stop offset="1" stop-color="#cc7edf"/>
    </linearGradient>
    <linearGradient id="grad5" x1="833.954" y1="2402.16" x2="833.954" y2="1501.89" gradientUnits="userSpaceOnUse">
      <stop offset="0" stop-color="#b95bd2"/>
      <stop offset="0.15" stop-color="#b95bd2"/>
      <stop offset="1" stop-color="#a557c0"/>
    </linearGradient>
  </defs>
  <path d="M2226.18,1303.94h244.166v-669.583h264.167v-193.75h-773.333v193.75h265v669.583zm1133.33,0h261.667l-186.25-271.25c107.5-52.083 169.166-145.833 169.166-272.916 0-197.084-148.333-319.167-383.75-319.167h-394.583v863.333h244.167v-229.583h133.333l156.25,229.583zm-2.5-543.75c0,78.75-50.833,125.834-151.667,125.834h-135.833v-252.917h135.833c100.834-0 151.667,46.667 151.667,127.083zm1027.08,543.75h254.167l-382.5-863.333h-240.417l-380.833,863.333h249.167l67.5-167.5h365.416l67.5,167.5zm-361.666-347.916l111.25-276.25 110.833,276.25h-222.083zm1266.67-515.417v460l-381.25-460h-200.833v863.333h239.167v-460l381.25,460h200.833v-863.333h-239.167zm715.417,880.417c256.667,0 382.5-128.334 382.5-278.75 0-318.334-490-219.584-490-351.667 0-42.917 37.083-77.5 139.583-77.5 75.417,0 156.667,22.083 239.167,66.667l75.417-181.25c-85-49.584-201.25-75.417-313.334-75.417-256.666,0-382.5,125.833-382.5,280 0,320.833 490.834,220.833 490.834,357.5 0,42.083-39.167,70.417-140.417,70.417-100,0-208.333-34.584-285-85l-80,180c81.25,56.666 222.083,95 363.75,95zm925,0c159.167,0 287.5-57.917 371.25-162.917l-155.417-140.417c-54.166,65.417-120.833,101.25-203.333,101.25-142.083,0-240.833-98.75-240.833-246.666 0-148.334 98.75-246.667 240.833-246.667 82.5,0 149.167,35.417 203.333,100.833l155.417-140.416c-83.75-105-212.083-162.917-371.25-162.917-273.75,0-475,186.25-475,449.167 0,262.5 201.25,448.75 475,448.75zm721.667-205.834v-157.916h383.333v-182.5h-383.333v-145.834h435v-188.333h-677.084v863.333h693.334v-188.75h-451.25zm1169.17-674.583v460l-381.25-460h-200.833v863.333h239.167v-460l381.25,460h200.833v-863.333h-239.167zm412.084,863.333h408.333c285.833,0 482.083-166.666 482.083-431.666 0-265.417-196.25-431.667-482.083-431.667h-408.333v863.333zm244.166-195v-473.75h154.167c146.667,0 245.417,87.5 245.417,237.084 0,149.166-98.75,236.666-245.417,236.666h-154.167z" fill="#f4f4f5"/>
  <path d="M2080.35,2224.78h126.667l114.167-575.417h226.25l22.5-107.083h-579.167l-21.667,107.083h226.25l-115,575.417zm1062.08-576.25l21.25-106.25h-498.334l-136.25,682.5h511.667l21.667-106.25h-386.25l37.083-187.917h331.667l20.416-104.583h-330.833l35.417-177.5h372.5zm382.916,586.25c113.334,0 211.667-34.167 277.917-110.417l-74.167-79.583c-51.666,53.333-117.916,78.75-193.75,78.75-139.583,0-213.75-75-213.75-188.334 0-159.583 109.167-291.25 283.75-291.25 80.834,0 139.584,28.334 176.667,80l91.667-77.083c-47.917-74.167-142.5-114.167-259.584-114.167-253.333,0-420,179.584-420,410.417 0,172.5 123.75,291.667 331.25,291.667zm979.167-692.5l-55.833,280h-352.917l55.833-280h-127.083l-136.25,682.5h126.667l57.5-289.584h352.916l-57.5,289.584h125.834l136.666-682.5h-125.833zm789.583,0l-94.583,477.916-280.833-477.916h-104.167l-136.667,682.5h125.834l95.416-477.5 280,477.5h104.167l136.667-682.5h-125.834zm514.584,692.5c251.666,0 418.333-179.584 418.333-410.417-0-172.917-120.833-291.667-326.667-291.667-251.25,0-418.333,179.584-418.333,410.417-0,172.5 121.25,291.667 326.667,291.667zm10.833-111.25c-136.667,0-209.583-75.834-209.583-188.334-0-157.916 107.083-291.25 278.75-291.25 136.666,0 210.833,75.834 210.833,187.917-0,157.917-108.333,291.667-280,291.667zm469.167,101.25h483.333l21.667-107.084h-357.084l115-575.416h-126.666l-136.25,682.5zm912.5,10c251.666,0 418.333-179.584 418.333-410.417-0-172.917-120.833-291.667-326.667-291.667-251.25,0-417.916,179.584-417.916,410.417-0,172.5 120.833,291.667 326.25,291.667zm10.833-111.25c-136.25,0-209.583-75.834-209.583-188.334-0-157.916 107.083-291.25 278.75-291.25 136.666,0 210.833,75.834 210.833,187.917-0,157.917-108.333,291.667-280,291.667zm962.5-32.084c-41.25,21.25-85,32.084-132.5,32.084-144.583,0-218.75-75.834-218.75-188.334-0-163.75 113.333-291.25 290.833-291.25 82.917,0 143.334,22.5 187.917,77.084l91.667-76.25c-56.25-72.084-149.167-112.084-273.75-112.084-257.5,0-424.167,179.584-424.167,410.417 0,173.75 126.667,291.667 331.25,291.667 94.583,0 186.25-30.417 254.583-83.75l55.834-275h-120l-42.917,215.416zm259.167,133.334h126.666l136.667-682.5h-126.667l-136.666,682.5zm924.166-576.25l21.667-106.25h-498.333l-136.667,682.5h512.083l21.25-106.25h-385.833l36.667-187.917h331.666l20.417-104.583h-330.417l35-177.5h372.5zm263.334,586.25c179.583,0 301.25-85.834 301.25-221.667 0-208.333-344.167-146.25-344.167-273.75 0-59.583 61.25-101.25 165-101.25 67.917,0 134.167,18.333 185,52.5l49.583-100.417c-57.5-37.083-140.416-57.5-227.916-57.5-176.667,0-297.5,85.834-297.5,220.417 0,219.167 344.166,152.917 344.166,279.583 0,60.417-64.166,96.667-163.75,96.667-82.916,0-165.833-28.333-222.083-74.167l-53.75,99.584c53.75,45.833 157.083,80 264.167,80z" fill="#d4d4d8"/>
  <g>
    <path d="M834.051,122.852l-743.936,1544.88 95.277-36.13 647.742-1339.17 647.628,1339.17 95.398,36.13-742.109-1544.88z" fill="url(#grad1)"/>
    <path d="M1576.16,1667.74l-742.109,906.291-743.936-906.291 95.277-36.13 648.659,803.213 646.711-803.213 95.398,36.13z" fill="#32054a"/>
    <path d="M833.134,292.434l647.628,1339.17-340.284-128.897-307.344-1210.28z" fill="url(#grad2)"/>
    <path d="M1480.76,1631.61l-646.711,803.213-648.659-803.213 342.029-129.717 305.713,900.267 307.344-899.447 340.284,128.897z" fill="url(#grad3)"/>
    <path d="M833.134,292.434l307.344,1210.28-307.344-699.931-305.713,699.111 305.713-1209.45z" fill="url(#grad4)"/>
    <path d="M1140.48,1502.71l-307.344,899.447-305.713-900.267 306.63,441.227 306.427-440.407z" fill="url(#grad5)"/>
    <path d="M1140.48,1502.71l-306.427,440.407-306.63-441.227 305.713,181.662 307.344-180.842z" fill="#c17ed6"/>
    <path d="M833.134,292.434l-305.713,1209.45-342.029,129.717 647.742-1339.17z" fill="url(#grad2)"/>
  </g>
</svg>