<?xml version="1.0" encoding="UTF-8" standalone="no"?><!DOCTYPE svg PUBLIC "-//W3C//DTD SVG 1.1//EN" "http://www.w3.org/Graphics/SVG/1.1/DTD/svg11.dtd"><svg width="100%" height="100%" viewBox="0 0 1487 2452" version="1.1" xmlns="http://www.w3.org/2000/svg" xmlns:xlink="http://www.w3.org/1999/xlink" xml:space="preserve" xmlns:serif="http://www.serif.com/" style="fill-rule:evenodd;clip-rule:evenodd;stroke-linejoin:round;stroke-miterlimit:2;"><g><path d="M743.936,-0l-743.936,1544.88l95.276,-36.129l647.742,-1339.17l647.629,1339.17l95.398,36.129l-742.109,-1544.88Z" style="fill:url(#_Linear1);fill-rule:nonzero;"/><path d="M1486.05,1544.88l-742.109,906.292l-743.936,-906.292l95.276,-36.129l648.66,803.213l646.711,-803.213l95.398,36.129Z" style="fill:#32054a;fill-rule:nonzero;"/><path d="M743.018,169.582l647.629,1339.17l-340.284,-128.897l-307.345,-1210.28Z" style="fill:url(#_Linear2);fill-rule:nonzero;"/><path d="M1390.65,1508.75l-646.711,803.213l-648.66,-803.213l342.03,-129.717l305.712,900.267l307.345,-899.447l340.284,128.897Z" style="fill:url(#_Linear3);fill-rule:nonzero;"/><path d="M743.018,169.582l307.345,1210.28l-307.345,-699.931l-305.712,699.111l305.712,-1209.45Z" style="fill:url(#_Linear4);fill-rule:nonzero;"/><path d="M1050.36,1379.86l-307.345,899.447l-305.712,-900.267l306.63,441.227l306.427,-440.407Z" style="fill:url(#_Linear5);fill-rule:nonzero;"/><path d="M1050.36,1379.86l-306.427,440.407l-306.63,-441.227l305.712,181.662l307.345,-180.842Z" style="fill:#c17ed6;fill-rule:nonzero;"/><path d="M743.018,169.582l-305.712,1209.45l-342.03,129.717l647.742,-1339.17Z" style="fill:url(#_Linear6);fill-rule:nonzero;"/></g><defs><linearGradient id="_Linear1" x1="0" y1="0" x2="1" y2="0" gradientUnits="userSpaceOnUse" gradientTransform="matrix(9.45968e-14,-1544.88,1544.88,9.45968e-14,743.018,1544.88)"><stop offset="0" style="stop-color:#aa38c7;stop-opacity:1"/><stop offset="1" style="stop-color:#e8d2f1;stop-opacity:1"/></linearGradient><linearGradient id="_Linear2" x1="0" y1="0" x2="1" y2="0" gradientUnits="userSpaceOnUse" gradientTransform="matrix(8.20007e-14,-1339.17,1339.17,8.20007e-14,1066.84,1508.75)"><stop offset="0" style="stop-color:#bc6dd3;stop-opacity:1"/><stop offset="0.68" style="stop-color:#ce97e0;stop-opacity:1"/><stop offset="0.86" style="stop-color:#dfbeeb;stop-opacity:1"/><stop offset="1" style="stop-color:#e2c6ed;stop-opacity:1"/></linearGradient><linearGradient id="_Linear3" x1="0" y1="0" x2="1" y2="0" gradientUnits="userSpaceOnUse" gradientTransform="matrix(5.71255e-14,-932.93,932.93,5.71255e-14,742.962,2311.97)"><stop offset="0" style="stop-color:#9837b7;stop-opacity:1"/><stop offset="1" style="stop-color:#a549c1;stop-opacity:1"/></linearGradient><linearGradient id="_Linear4" x1="0" y1="0" x2="1" y2="0" gradientUnits="userSpaceOnUse" gradientTransform="matrix(7.4108e-14,-1210.28,1210.28,7.4108e-14,743.838,1379.86)"><stop offset="0" style="stop-color:#b95bd2;stop-opacity:1"/><stop offset="0.4" style="stop-color:#b95bd2;stop-opacity:1"/><stop offset="0.53" style="stop-color:#af44ca;stop-opacity:1"/><stop offset="0.79" style="stop-color:#ba57d3;stop-opacity:1"/><stop offset="1" style="stop-color:#cc7edf;stop-opacity:1"/></linearGradient><linearGradient id="_Linear5" x1="0" y1="0" x2="1" y2="0" gradientUnits="userSpaceOnUse" gradientTransform="matrix(5.51255e-14,-900.267,900.267,5.51255e-14,743.838,2279.3)"><stop offset="0" style="stop-color:#b95bd2;stop-opacity:1"/><stop offset="0.15" style="stop-color:#b95bd2;stop-opacity:1"/><stop offset="1" style="stop-color:#a557c0;stop-opacity:1"/></linearGradient><linearGradient id="_Linear6" x1="0" y1="0" x2="1" y2="0" gradientUnits="userSpaceOnUse" gradientTransform="matrix(8.20007e-14,-1339.17,1339.17,8.20007e-14,1066.84,1508.75)"><stop offset="0" style="stop-color:#bc6dd3;stop-opacity:1"/><stop offset="0.68" style="stop-color:#ce97e0;stop-opacity:1"/><stop offset="0.86" style="stop-color:#dfbeeb;stop-opacity:1"/><stop offset="1" style="stop-color:#e2c6ed;stop-opacity:1"/></linearGradient></defs></svg>